<?xml version="1.0" encoding="utf-8"?>
<!-- Generator: Adobe Illustrator 24.2.0, SVG Export Plug-In . SVG Version: 6.00 Build 0)  -->
<svg version="1.1" id="Layer_1" xmlns="http://www.w3.org/2000/svg" xmlns:xlink="http://www.w3.org/1999/xlink" x="0px" y="0px"
	 viewBox="0 0 449.3 577.5" style="enable-background:new 0 0 449.3 577.5;" xml:space="preserve">
<g>
	<g id="Camada_1">
		<path d="M184.4,543.2c-2.9-3.5-5.1-7.3-6.8-11.5c-1.8-2.6-3.2-5.3-4.5-8.2c-5.8-13.7-4.8-28.3-0.3-42.2c1.2-4,2.8-7.8,4.8-11.5
			c-9.5-16.6-14.3-40.3-14.3-71.9c0-128.3,25.9-212.5,25.9-289C189.2,42.8,151.6,0,97.2,0C46.7,0,0,32.4,0,58.3
			c0,9.1,6.5,18.1,15.6,23.3c18.1-10.4,35-15.6,51.8-15.6C92,66.1,105,83,105,128.3c0,85.5-25.9,180.2-25.9,269.6
			c0,98.8,51.6,164.3,125.8,171.7c1-2.1,2.1-4.2,3.3-6.3C199.4,557.6,190.9,551.1,184.4,543.2z"/>
	</g>
	<g id="Camada_2">
		<path d="M291.2,512.7c51.8,0,86.8-31.1,86.8-76.5c0-46.7-32.4-73.9-111.5-119.2c-86.9-50.5-115.3-86.8-115.3-145.1
			c0-84.2,79.1-164.6,180.1-164.6C403.9,7.3,448,46.2,448,88.9c0,16.9-10.4,35-41.5,45.4c-16.8-41.5-49.3-62.2-95.9-62.2
			c-53.1,0-88.1,28.5-88.1,72.6c0,33.7,14.3,53.1,95.9,101.1c94.6,55.7,130.9,102.4,130.9,159.4c0,97.2-82.9,172.4-195.7,172.4
			C159,577.5,102,525.7,102,468.7c0-31.1,24.6-51.8,49.3-59.6C164.2,468.7,214.7,512.7,291.2,512.7z"/>
	</g>
</g>
</svg>
